<svg xmlns="http://www.w3.org/2000/svg" width="312" height="304" fill="currentColor" style=""><rect id="backgroundrect" width="100%" height="100%" x="0" y="0" fill="none" stroke="none" style="" class=""/>
  
<g class="currentLayer" style=""><title>Layer 1</title><path d="M155.89914880514152,0 C69.76486909030083,0 0,69.76486909030083 0,155.89914880514152 c0,68.98537334627513 44.62613134547176,127.25268021219678 106.59604299551552,147.909317428878 c7.794957440257076,1.3641175520449884 10.71806648035348,-3.3128569121092584 10.71806648035348,-7.405209568244224 c0,-3.702604784122112 -0.19487393600642705,-15.979662752527007 -0.19487393600642705,-29.036216464957604 c-39.169661137291804,7.210335632237797 -49.30310580962601,-9.54882286431492 -52.42108878572884,-18.31814998460413 c-1.7538654240578424,-4.48210052814782 -9.353948928308492,-18.31814998460413 -15.979662752527007,-22.02075476872624 c-5.4564702081799545,-2.9231090400964037 -13.251427648437033,-10.1334446723342 -0.19487393600642705,-10.328318608340625 c12.277057968404897,-0.19487393600642705 21.046385088694105,11.302688288372762 23.969494128790508,15.979662752527007 c14.03092339246274,23.579746256777653 36.44142603320183,16.954032432559142 45.40562708949747,12.861679776424179 c1.3641175520449884,-10.1334446723342 5.4564702081799545,-16.954032432559142 9.938570736327772,-20.851511152687678 c-34.68756060914399,-3.897478720128538 -70.9341127063394,-17.343780304571997 -70.9341127063394,-76.97520472253863 c0,-16.954032432559142 6.041092016199235,-30.98495582502188 15.979662752527007,-41.89789624138178 c-1.5589914880514155,-3.897478720128538 -7.01546169623137,-19.877141472655545 1.5589914880514155,-41.3132744333625 c0,0 13.056553712430606,-4.092352656134965 42.87226592141392,15.979662752527007 c12.471931904411324,-3.507730848115685 25.72335955284835,-5.261596272173526 38.97478720128538,-5.261596272173526 c13.251427648437033,0 26.50285529687406,1.7538654240578424 38.97478720128538,5.261596272173526 c29.81571220898332,-20.2668893446684 42.87226592141392,-15.979662752527007 42.87226592141392,-15.979662752527007 c8.574453184282785,21.43613296070696 3.117982976102831,37.41579571323396 1.5589914880514155,41.3132744333625 c9.938570736327772,10.912940416359907 15.979662752527007,24.748989872816217 15.979662752527007,41.89789624138178 c0,59.82629835397305 -36.44142603320183,73.07772600241009 -71.12898664234582,76.97520472253863 c5.651344144186381,4.8718484001606726 10.523192544347053,14.225797328469167 10.523192544347053,28.84134252895118 c0,20.851511152687678 -0.19487393600642705,37.61066964924039 -0.19487393600642705,42.87226592141392 c0,4.092352656134965 2.9231090400964037,8.96420105629564 10.71806648035348,7.405209568244224 A156.13299752834925,156.13299752834925 0 0 0 311.79829761028304,155.89914880514152 c0,-86.13427971484069 -69.76486909030083,-155.89914880514152 -155.89914880514152,-155.89914880514152 z" id="svg_1" class="selected" fill="#ffffff" fill-opacity="1"/></g></svg>